# xmcd
#
# Track frame offsets:
# 150
# 30498
# 66153
# 82490
# 100403
# 118313
# 150063
# 172873
#
# Disc length: 2570 seconds
#
#
# Revision: 5
# Processed by: cddbd v1.5.1PL2 Copyright (c) Steve Scherf et al.
# Submitted via: FreeRIP 2.941 
#
DISCID=5f0a0808
DTITLE=The Marshall Tucker Band - A New Life
DYEAR=1974
DGENRE=Southern Rock
TTITLE0=A New Life
TTITLE1=Southern Woman
TTITLE2=Blue Ridge Mountain Sky
TTITLE3=Too Stubborn
TTITLE4=Another Cruel Love
TTITLE5=You Ain't Fooling Me
TTITLE6=24 Hours at a Time
TTITLE7=Toy Caldwell - Fly Eagle Fly
EXTD=
EXTT0=
EXTT1=
EXTT2=
EXTT3=
EXTT4=
EXTT5=
EXTT6=
EXTT7=
PLAYORDER=
